<svg width="31" height="36" viewBox="0 0 31 36" fill="none" xmlns="http://www.w3.org/2000/svg">
<path d="M30.9603 21.3648C30.3342 29.6971 23.4147 35.9744 15.4999 35.9905C7.56892 35.9905 0.649425 29.6971 0.0393532 21.3648C-0.586773 13.0486 6.33272 5.75983 15.4999 5.77589C24.667 5.77589 31.5865 13.0646 30.9603 21.3648Z" fill="#E74C3C"/>
<path d="M19.658 6.30569C19.5295 6.25753 19.4011 6.22541 19.2566 6.17725C18.0204 5.88827 16.7521 5.75984 15.4999 5.75984C13.172 5.75984 3.29843 7.33317 6.31668 11.4431C6.94281 12.294 7.93819 12.7757 8.93357 13.1128C11.9197 14.1082 15.2912 13.9637 18.1007 12.4706C19.658 11.6518 21.7611 10.6404 23.5592 11.3789C25.8069 12.3101 26.1761 15.7939 26.1761 17.897C26.1761 24.945 20.1878 30.9333 13.1398 30.9333C6.09192 30.9333 0.408621 25.234 0.135694 18.3947C0.00725791 19.358 -0.0409063 20.3373 0.0393663 21.3327C0.665492 29.665 7.58499 35.9423 15.4999 35.9584C23.4308 35.9584 30.3503 29.665 30.9604 21.3327C31.4902 14.3329 26.6577 8.08773 19.658 6.27357V6.30569Z" fill="#C0392B"/>
<path d="M13.0114 9.14734C13.0114 9.14734 12.9793 9.00283 12.9472 8.77807C12.899 8.52119 12.8188 8.21618 12.7385 7.84693C12.6261 7.47767 12.4977 7.0442 12.305 6.59468C12.1124 6.14515 11.9036 5.69562 11.6468 5.26215C11.133 4.3952 10.4748 3.65669 9.94499 3.22322C9.67207 2.99846 9.4473 2.85395 9.28676 2.75762C9.12621 2.67735 9.02989 2.62921 9.02989 2.62921H8.98172C8.30743 2.2439 8.06662 1.39301 8.41982 0.718719C8.78907 0.044429 9.6239 -0.196383 10.2982 0.172871C10.3624 0.20498 10.4266 0.253131 10.4748 0.28524C10.4748 0.28524 10.6193 0.397634 10.8601 0.574234C11.0849 0.766888 11.406 1.05585 11.727 1.40905C12.3853 2.1315 13.0596 3.20716 13.5252 4.34703C13.766 4.90894 13.9426 5.48691 14.071 6.03276C14.1994 6.57861 14.2958 7.09236 14.36 7.54189C14.4081 8.00747 14.4403 8.37673 14.4563 8.60149C14.4563 8.84231 14.4724 8.98678 14.4724 8.98678C14.4884 9.38815 14.1834 9.74134 13.766 9.75739C13.3967 9.77345 13.0756 9.51658 13.0114 9.16338V9.14734Z" fill="#522100"/>
<path d="M18.9516 4.45943C20.6694 3.46405 22.6762 3.78512 24.6027 3.81723C25.3894 3.81723 29.0498 3.62458 29.1943 2.38838C28.8893 5.16581 27.6531 8.89046 24.6349 9.61291C23.2542 9.95006 21.8093 9.80557 20.4125 9.66108C18.4378 9.46842 16.4631 9.25972 14.4884 9.06707C15.4677 7.38134 16.8163 5.92038 18.4057 4.79656C18.5984 4.66812 18.775 4.53969 18.9516 4.44336V4.45943Z" fill="#27AE60"/>
<path d="M5.4658 14.1563C5.4658 14.5898 5.1126 14.943 4.67913 14.943C4.24565 14.943 3.89246 14.5898 3.89246 14.1563C3.89246 13.7229 4.24565 13.3697 4.67913 13.3697C5.1126 13.3697 5.4658 13.7229 5.4658 14.1563Z" fill="#FF8073"/>
<path d="M6.83043 17.4154C6.83043 17.8649 6.46118 18.2342 6.01165 18.2342C5.56212 18.2342 5.20892 17.8649 5.20892 17.4154C5.20892 16.9659 5.57818 16.6127 6.01165 16.6127C6.44512 16.6127 6.83043 16.9819 6.83043 17.4154Z" fill="#FF8073"/>
<path d="M5.08049 17.6402C5.08049 17.9613 4.80756 18.2342 4.48647 18.2342C4.16538 18.2342 3.89246 17.9613 3.89246 17.6402C3.89246 17.3191 4.14933 17.0462 4.48647 17.0462C4.82362 17.0462 5.08049 17.3191 5.08049 17.6402Z" fill="#FF8073"/>
<path d="M8.74086 20.6905C8.74086 21.4451 8.13079 22.0552 7.37623 22.0552C6.62167 22.0552 6.0116 21.4451 6.0116 20.6905C6.0116 19.936 6.62167 19.3259 7.37623 19.3259C8.13079 19.3259 8.74086 19.936 8.74086 20.6905Z" fill="#FF8073"/>
<path d="M9.41517 18.6998C9.41517 18.9566 9.20646 19.1653 8.94959 19.1653C8.69272 19.1653 8.48401 18.9566 8.48401 18.6998C8.48401 18.4429 8.69272 18.2342 8.94959 18.2342C9.20646 18.2342 9.41517 18.4429 9.41517 18.6998Z" fill="#FF8073"/>
<path d="M4.98417 20.4658C4.98417 20.8993 4.63097 21.2524 4.1975 21.2524C3.76403 21.2524 3.41083 20.8993 3.41083 20.4658C3.41083 20.0323 3.76403 19.6791 4.1975 19.6791C4.63097 19.6791 4.98417 20.0323 4.98417 20.4658Z" fill="#FF8073"/>
<path d="M12.1766 20.9474C12.1766 21.413 11.8073 21.7822 11.3417 21.7822C10.8762 21.7822 10.5069 21.413 10.5069 20.9474C10.5069 20.4818 10.8762 20.1126 11.3417 20.1126C11.8073 20.1126 12.1766 20.4818 12.1766 20.9474Z" fill="#FF8073"/>
<path d="M13.8783 20.3694C14.2153 20.3694 14.4884 20.0963 14.4884 19.7594C14.4884 19.4224 14.2153 19.1493 13.8783 19.1493C13.5414 19.1493 13.2682 19.4224 13.2682 19.7594C13.2682 20.0963 13.5414 20.3694 13.8783 20.3694Z" fill="#FF8073"/>
<path d="M10.1697 23.2593C10.1697 23.5964 9.8968 23.8693 9.55966 23.8693C9.22251 23.8693 8.94958 23.5964 8.94958 23.2593C8.94958 22.9221 9.22251 22.6492 9.55966 22.6492C9.8968 22.6492 10.1697 22.9221 10.1697 23.2593Z" fill="#FF8073"/>
</svg>
