<svg width="47" height="48" viewBox="0 0 47 48" fill="none" xmlns="http://www.w3.org/2000/svg">
<path d="M5.50922 7.10383C12.4718 15.3216 35.9034 25.4642 45.4937 24.6441C45.7949 24.6106 45.4267 26.6693 45.6276 26.7529C34.7319 38.3181 7.19964 37.3139 5.50922 7.10383Z" fill="#F39C12"/>
<path d="M34.2632 30.8033C23.5684 30.8033 15.2334 23.0708 12.6726 12.9952C9.64325 11.037 7.11597 9.01183 5.49249 7.10383C7.0825 35.7072 31.8364 38.134 43.7196 28.4768C40.7572 29.9497 37.5269 30.7865 34.2465 30.7865L34.2632 30.8033Z" fill="#E67E22"/>
<path d="M5.91089 6.6854C5.9611 6.8193 5.459 6.98667 5.50921 7.10383C9.94449 19.4557 24.7566 33.113 45.4937 24.6441C45.7782 24.5269 45.9288 23.1378 46.2134 23.0039C36.6231 23.9579 12.5889 12.0412 5.91089 6.66865V6.6854Z" fill="#F1C40F"/>
<path d="M44.9916 24.8449L46.2134 23.0039C46.2134 23.0039 47 24.2926 47 24.8449C47 25.3972 46.2803 26.686 45.6276 26.7529C44.9748 26.8199 44.4895 25.0458 44.9916 24.8449Z" fill="#34495E"/>
<path d="M10.7479 10.6186C10.7479 11.0537 10.3964 11.4219 9.97796 11.4219C9.55954 11.4219 9.20807 11.0705 9.20807 10.6186C9.20807 10.1667 9.55954 9.8152 9.97796 9.8152C10.3964 9.8152 10.7479 10.1667 10.7479 10.6186Z" fill="#F39C12"/>
<path d="M11.2667 13.6814C11.2667 14.0496 10.9822 14.3509 10.6307 14.3509C10.2792 14.3509 9.99469 14.0496 9.99469 13.6814C9.99469 13.3132 10.2792 13.012 10.6307 13.012C10.9822 13.012 11.2667 13.3132 11.2667 13.6814Z" fill="#F39C12"/>
<path d="M16.1539 14.535C16.1539 15.104 15.7187 15.5559 15.1664 15.5559C14.6141 15.5559 14.179 15.104 14.179 14.535C14.179 13.9659 14.6141 13.514 15.1664 13.514C15.7187 13.514 16.1539 13.9659 16.1539 14.535Z" fill="#F39C12"/>
<path d="M17.7607 16.2589C18.0842 16.2589 18.3464 15.9816 18.3464 15.6396C18.3464 15.2976 18.0842 15.0204 17.7607 15.0204C17.4371 15.0204 17.1749 15.2976 17.1749 15.6396C17.1749 15.9816 17.4371 16.2589 17.7607 16.2589Z" fill="#F39C12"/>
<path d="M20.1707 16.0078C20.1707 16.2589 19.9699 16.4597 19.7356 16.4597C19.5013 16.4597 19.3004 16.2589 19.3004 16.0078C19.3004 15.7568 19.5013 15.5559 19.7356 15.5559C19.9699 15.5559 20.1707 15.7568 20.1707 16.0078Z" fill="#F39C12"/>
<path d="M16.6728 17.7652C16.6728 18.2004 16.338 18.5519 15.9196 18.5519C15.5012 18.5519 15.1664 18.2004 15.1664 17.7652C15.1664 17.3301 15.5012 16.9786 15.9196 16.9786C16.338 16.9786 16.6728 17.3301 16.6728 17.7652Z" fill="#F39C12"/>
<path d="M24.0202 18.2171C24.0202 18.4682 23.8194 18.669 23.5851 18.669C23.3507 18.669 23.1499 18.4682 23.1499 18.2171C23.1499 17.9661 23.3507 17.7652 23.5851 17.7652C23.8194 17.7652 24.0202 17.9661 24.0202 18.2171Z" fill="#F39C12"/>
<path d="M28.0706 22.3177C28.5975 22.3177 29.0246 21.8756 29.0246 21.3302C29.0246 20.7848 28.5975 20.3427 28.0706 20.3427C27.5437 20.3427 27.1166 20.7848 27.1166 21.3302C27.1166 21.8756 27.5437 22.3177 28.0706 22.3177Z" fill="#F39C12"/>
<path d="M30.966 21.7486C30.966 21.9662 30.7819 22.1503 30.5644 22.1503C30.3468 22.1503 30.1627 21.9662 30.1627 21.7486C30.1627 21.531 30.3468 21.3469 30.5644 21.3469C30.7819 21.3469 30.966 21.531 30.966 21.7486Z" fill="#F39C12"/>
<path d="M34.029 21.9495C34.029 22.2842 33.7612 22.5687 33.4432 22.5687C33.1252 22.5687 32.8574 22.3009 32.8574 21.9495C32.8574 21.598 33.1252 21.3302 33.4432 21.3302C33.7612 21.3302 34.029 21.598 34.029 21.9495Z" fill="#F39C12"/>
<path d="M36.3051 22.485C36.3051 22.7695 36.0708 23.0039 35.803 23.0039C35.5352 23.0039 35.3009 22.7695 35.3009 22.485C35.3009 22.2005 35.5352 21.9662 35.803 21.9662C36.0708 21.9662 36.3051 22.2005 36.3051 22.485Z" fill="#F39C12"/>
<path d="M4.78952 7.62267C6.21216 18.4514 20.3381 40.3266 28.7735 45.1301C29.0413 45.2807 27.6354 46.7703 27.7526 46.9711C12.5052 50.3687 -9.90548 33.7657 4.78952 7.62267Z" fill="#F39C12"/>
<path d="M5.35856 7.5055C5.32508 7.63939 4.82298 7.50551 4.78951 7.62267C1.91076 20.4599 6.98205 40.3266 28.7735 45.1301C29.0748 45.197 29.9451 44.1258 30.2463 44.1761C21.744 39.473 8.0532 15.7903 5.35856 7.48877V7.5055Z" fill="#F1C40F"/>
<path d="M28.2379 45.0129L30.2296 44.1928C30.2296 44.1928 30.1961 45.7159 29.9116 46.1678C29.6271 46.6196 28.3216 47.2891 27.7358 46.9711C27.15 46.6531 27.7023 44.8957 28.2212 45.0129H28.2379Z" fill="#34495E"/>
<path d="M7.28334 13.5475C7.04902 13.9157 6.56365 14.0162 6.21218 13.7651C5.8607 13.5141 5.76028 13.0287 5.9946 12.6605C6.22892 12.2923 6.71429 12.1918 7.06576 12.4429C7.41724 12.6939 7.51765 13.1793 7.28334 13.5475Z" fill="#F39C12"/>
<path d="M6.07823 16.3928C5.87738 16.694 5.49244 16.7777 5.19117 16.5769C4.88991 16.376 4.82296 15.9576 5.00707 15.6564C5.20791 15.3551 5.59286 15.2714 5.89412 15.4723C6.19538 15.6731 6.26233 16.0915 6.07823 16.3928Z" fill="#F39C12"/>
<path d="M9.69342 19.9076C9.39216 20.3762 8.77289 20.5101 8.321 20.1921C7.8691 19.8741 7.75195 19.2381 8.03647 18.7695C8.33774 18.3008 8.94026 18.1669 9.4089 18.4849C9.86079 18.8029 9.97795 19.4389 9.69342 19.9076Z" fill="#F39C12"/>
<path d="M10.932 22.0833C10.7479 22.3679 10.3797 22.4348 10.1119 22.2507C9.8441 22.0666 9.76042 21.6817 9.94452 21.3971C10.1286 21.1126 10.4968 21.0456 10.7646 21.2298C11.0324 21.4139 11.1161 21.7988 10.932 22.0833Z" fill="#F39C12"/>
<path d="M12.2542 23.439C12.1203 23.6399 11.8525 23.7068 11.6517 23.5729C11.4508 23.439 11.4006 23.1545 11.5345 22.9537C11.6684 22.7528 11.9362 22.6859 12.137 22.8198C12.3379 22.9537 12.3881 23.2382 12.2542 23.439Z" fill="#F39C12"/>
<path d="M8.40465 22.8867C8.17034 23.2549 7.70171 23.3386 7.36697 23.1043C7.0155 22.87 6.93181 22.3846 7.14939 22.0164C7.3837 21.6649 7.85234 21.5645 8.18708 21.7988C8.52182 22.0331 8.62223 22.5185 8.40465 22.8867Z" fill="#F39C12"/>
<path d="M14.2961 27.4726C14.1622 27.6735 13.8944 27.7404 13.6936 27.6065C13.4928 27.4726 13.4425 27.1881 13.5764 26.9872C13.7103 26.7864 13.9781 26.7194 14.179 26.8533C14.3798 26.9872 14.43 27.2718 14.2961 27.4726Z" fill="#F39C12"/>
<path d="M16.7899 32.9288C16.5054 33.3807 15.9196 33.4979 15.4844 33.2134C15.0492 32.9121 14.9321 32.3096 15.2166 31.8577C15.5011 31.4058 16.0869 31.2886 16.5388 31.5732C16.974 31.8744 17.0911 32.477 16.8066 32.9288H16.7899Z" fill="#F39C12"/>
<path d="M18.1958 34.385C18.0786 34.5691 17.8275 34.6193 17.6434 34.5021C17.4593 34.3682 17.4091 34.1172 17.5263 33.9331C17.6434 33.749 17.8945 33.6987 18.0786 33.8159C18.2627 33.9331 18.3129 34.2008 18.1958 34.385Z" fill="#F39C12"/>
<path d="M20.6561 36.3265C20.472 36.611 20.1038 36.6779 19.836 36.4938C19.5682 36.3097 19.4845 35.9248 19.6686 35.6402C19.8528 35.3557 20.221 35.2888 20.4887 35.4729C20.7565 35.657 20.8402 36.0419 20.6561 36.3265Z" fill="#F39C12"/>
<path d="M22.2461 38.0838C22.0955 38.3181 21.7775 38.3851 21.5432 38.2345C21.3088 38.0671 21.2419 37.7491 21.4093 37.5148C21.5599 37.2805 21.8779 37.2135 22.1122 37.3641C22.3465 37.5315 22.4135 37.8495 22.2461 38.0838Z" fill="#F39C12"/>
<path d="M6.98206 0.29189C7.50091 -0.176743 8.75617 0.0743031 9.30849 0.258409C9.92776 0.475989 10.3462 0.710318 10.8148 1.21242C11.1496 1.5639 11.4676 1.91538 11.8023 2.26686C11.9529 2.41749 12.1036 2.58485 12.137 2.80243C12.1705 2.95306 12.137 3.12042 12.1036 3.27106C12.0701 3.42169 12.0366 3.58906 12.0031 3.73969C11.9529 3.99074 11.9027 4.25853 11.819 4.49284C11.5345 5.27948 10.8148 5.93222 10.0115 5.98243C9.19134 6.03264 8.35449 5.41338 8.25407 4.57653C8.25407 4.66022 7.68502 5.11212 7.60133 5.21254C7.43396 5.41339 7.23312 5.6477 7.09922 5.86528C6.78122 6.36739 6.84817 7.07034 7.21638 7.53897C7.3168 7.65613 7.43396 7.79004 7.41723 7.94067C7.41723 8.07456 7.30007 8.17496 7.19965 8.25865C6.88165 8.5097 6.47996 8.81096 6.16196 8.49296C5.9109 8.25865 5.76027 7.62267 5.86069 7.28793C5.76027 7.67288 5.64312 8.04108 5.52596 8.42603C5.42554 8.76076 5.459 8.89465 5.12427 8.86118C4.67237 8.81097 4.53848 8.3256 4.57196 7.92391C4.62217 7.25444 5.10754 6.48455 5.39206 5.89876C6.02806 4.55981 6.73101 3.15391 6.73101 1.61412C6.73101 1.24591 6.69754 0.877671 6.83144 0.542933C6.86491 0.442512 6.93186 0.358838 7.01554 0.29189H6.98206Z" fill="#F1C40F"/>
<path d="M7.58459 0.040843C7.68501 0.208212 7.75197 0.409054 7.73523 0.693581C7.73523 0.894424 7.68501 1.07853 7.58459 1.2459C7.53438 1.64759 7.6348 1.98231 7.86912 2.2501C7.90259 2.41747 7.93607 2.5681 7.95281 2.71873C8.23733 3.00326 8.37123 3.32128 8.42144 3.70623C9.02397 4.07444 9.7604 4.39244 10.3629 4.35897C11.0324 4.34223 11.5178 3.82338 12.0533 3.38822C12.0533 3.33801 12.0701 3.28778 12.0868 3.23757C12.1203 3.08694 12.1538 2.91957 12.1203 2.76894C12.0701 2.55136 11.9195 2.38401 11.7856 2.23337C11.4508 1.8819 11.1328 1.53042 10.7981 1.17894C10.3294 0.676833 9.91103 0.44253 9.29176 0.22495C8.90681 0.0910548 8.17038 -0.0595947 7.58459 0.0240898V0.040843Z" fill="#FFDE59"/>
</svg>
